<svg width="14" height="14" viewBox="0 0 14 14" fill="none" xmlns="http://www.w3.org/2000/svg">
<path d="M5.19749 12.0569C5.08665 12.0569 4.97582 12.0161 4.88832 11.9286C4.71915 11.7594 4.71915 11.4794 4.88832 11.3102L8.69165 7.5069C8.97165 7.2269 8.97165 6.7719 8.69165 6.4919L4.88832 2.68857C4.71915 2.5194 4.71915 2.2394 4.88832 2.07023C5.05749 1.90107 5.33749 1.90107 5.50665 2.07023L9.30999 5.87357C9.60749 6.17107 9.77665 6.57357 9.77665 6.9994C9.77665 7.42523 9.61332 7.82773 9.30999 8.12523L5.50665 11.9286C5.41915 12.0102 5.30832 12.0569 5.19749 12.0569Z" fill="#1E1E1E"/>
</svg>
