<svg width="143" height="40" viewBox="0 0 143 40" fill="none" xmlns="http://www.w3.org/2000/svg">
<path d="M22.1171 18.0737L9.64396 11.814L14.4954 12.1721L15.37 12.0491L16.1197 11.6803L16.8694 10.9426C17.2442 10.5737 17.5191 9.6393 17.619 9.34422C17.719 9.04914 17.6607 2.99179 17.619 0L22.1171 18.0737Z" fill="url(#paint0_linear_555_1472)"/>
<ellipse cx="14.4963" cy="8.73049" rx="2.49894" ry="2.459" fill="#EF7528"/>
<path d="M22.1914 18.5088L25.4634 5.11242L26.2427 9.83786L26.5685 10.646L27.1081 11.2771L28.0121 11.8221C28.4642 12.0946 29.4517 12.1394 29.7666 12.1661C30.0816 12.1928 36.0534 10.7222 39 9.98361L22.1914 18.5088Z" fill="url(#paint1_linear_555_1472)"/>
<ellipse cx="2.4612" cy="2.49678" rx="2.4612" ry="2.49678" transform="matrix(0.237149 0.971473 -0.973183 0.230033 31.4907 6.06836)" fill="#EF7528"/>
<path d="M21.9904 18.4648L35.7357 15.8401L31.6889 18.4973L31.0766 19.1241L30.7167 19.8689L30.5875 20.9044C30.523 21.4222 30.891 22.325 30.9969 22.6181C31.1028 22.9112 34.9389 27.6489 36.8437 29.9811L21.9904 18.4648Z" fill="url(#paint2_linear_555_1472)"/>
<ellipse cx="2.48388" cy="2.47422" rx="2.48388" ry="2.47422" transform="matrix(-0.792755 0.60954 -0.621859 -0.783129 37.3522 21.6348)" fill="#EF7528"/>
<path d="M21.9942 18.4425L26.3048 31.5512L23.1347 27.9198L22.4284 27.3976L21.6334 27.1361L20.5732 27.1352C20.0431 27.1348 19.1769 27.6035 18.894 27.7424C18.6112 27.8813 14.296 32.2015 12.1737 34.3442L21.9942 18.4425Z" fill="url(#paint3_linear_555_1472)"/>
<ellipse cx="2.47902" cy="2.47909" rx="2.47902" ry="2.47909" transform="matrix(-0.712193 -0.701984 0.713367 -0.700791 20.6568 33.8301)" fill="#EF7528"/>
<path d="M22.2015 18.5005L10.5178 26.0933L13.2261 22.1163L13.5485 21.3069L13.592 20.4833L13.3093 19.4778C13.168 18.975 12.4773 18.279 12.2657 18.048C12.0541 17.8169 6.6696 14.8807 4.00383 13.4414L22.2015 18.5005Z" fill="url(#paint4_linear_555_1472)"/>
<ellipse cx="2.46877" cy="2.4893" rx="2.46877" ry="2.4893" transform="matrix(0.499012 -0.866595 0.873409 0.486987 6.77576 21.3477)" fill="#EF7528"/>
<path d="M46.584 27.1924C45.7314 27.1924 45.0802 27.0659 44.6305 26.813C44.1901 26.56 43.9699 26.1993 43.9699 25.7308C43.9699 25.3748 44.1105 25.0796 44.3916 24.8454C44.6727 24.6112 45.0193 24.4941 45.4316 24.4941C45.7501 24.4941 46.0593 24.6018 46.3591 24.8173C46.6683 25.0328 46.9213 25.3186 47.1181 25.6746C47.5397 25.6746 47.9285 25.5856 48.2845 25.4076C48.6406 25.2295 48.9217 24.9859 49.1278 24.6768C49.3433 24.3582 49.451 24.0162 49.451 23.6508C49.451 23.3416 49.3714 23.0418 49.2121 22.7514C49.0528 22.4609 48.7905 22.222 48.4251 22.0346C48.0597 21.8472 47.5912 21.7535 47.0197 21.7535C46.7761 21.7535 46.4669 21.7863 46.0921 21.8519C45.9328 21.88 45.8204 21.8941 45.7548 21.8941C45.6518 21.8941 45.5674 21.8659 45.5018 21.8097C45.4363 21.7535 45.4081 21.6739 45.4175 21.5708L46.1764 16.9892L48.1721 17.7481L47.7364 20.3762C48.5703 20.3762 49.3011 20.5074 49.9289 20.7697C50.5566 21.0227 51.0391 21.3834 51.3764 21.8519C51.7231 22.3204 51.8964 22.8638 51.8964 23.4822C51.8964 24.1849 51.6622 24.8173 51.1937 25.3795C50.7346 25.9416 50.0975 26.382 49.2824 26.7005C48.4766 27.0285 47.5772 27.1924 46.584 27.1924ZM48.8327 18.0011C47.7739 18.0011 46.9681 17.8559 46.4154 17.5654C45.8626 17.275 45.5862 16.8627 45.5862 16.3286C45.5862 15.9539 45.6939 15.6634 45.9094 15.4573C46.1249 15.2418 46.4341 15.1341 46.837 15.1341C47.1462 15.1341 47.4319 15.2324 47.6943 15.4292C47.9566 15.6166 48.1674 15.8789 48.3267 16.2162C48.7764 16.1881 49.3573 16.0616 50.0694 15.8368C50.7909 15.6119 51.4561 15.3542 52.0651 15.0638C52.1213 15.2324 52.1635 15.4104 52.1916 15.5978C52.2291 15.7852 52.2478 15.9632 52.2478 16.1319C52.2478 16.5816 52.126 16.9423 51.8824 17.2141C51.6388 17.4858 51.2687 17.6872 50.7721 17.8184C50.2755 17.9402 49.629 18.0011 48.8327 18.0011ZM56.9706 25.3514C55.7245 25.3514 54.7735 25.1874 54.1176 24.8595C53.4712 24.5222 53.1479 24.0631 53.1479 23.4822C53.1479 23.2479 53.2041 23.0137 53.3166 22.7795C53.4384 22.5452 53.6023 22.3485 53.8084 22.1892C54.1551 22.7514 54.5814 23.187 55.0874 23.4962C55.6027 23.796 56.1883 23.9459 56.8441 23.9459C57.5 23.9459 58.0293 23.8382 58.4322 23.6227C58.8445 23.4072 59.0506 23.0886 59.0506 22.667C59.0506 22.4515 58.9663 22.2641 58.7976 22.1049C58.629 21.9456 58.4135 21.8097 58.1512 21.6973C57.8982 21.5849 57.5421 21.4443 57.083 21.2757C56.3897 21.0321 55.8182 20.7978 55.3684 20.573C54.9281 20.3481 54.5439 20.0342 54.216 19.6314C53.8975 19.2285 53.7382 18.7272 53.7382 18.1276C53.7382 17.4342 53.963 16.8393 54.4128 16.3427C54.8625 15.8368 55.4762 15.4526 56.2539 15.1903C57.0409 14.9279 57.9263 14.7968 58.9101 14.7968C59.5847 14.7968 60.1749 14.867 60.6809 15.0076C61.1962 15.1481 61.5897 15.3449 61.8614 15.5978C62.1425 15.8508 62.283 16.1366 62.283 16.4551C62.283 16.9049 62.1331 17.2562 61.8333 17.5092C61.5335 17.7528 61.1493 17.8746 60.6809 17.8746C60.2312 17.8746 59.833 17.7481 59.4863 17.4951C59.149 17.2328 58.8866 16.8533 58.6993 16.3568C57.9872 16.4317 57.411 16.605 56.9706 16.8768C56.5302 17.1391 56.3101 17.4577 56.3101 17.8324C56.3101 18.0479 56.3944 18.2353 56.563 18.3946C56.7411 18.5539 56.9566 18.6897 57.2095 18.8022C57.4719 18.9052 57.8373 19.0364 58.3057 19.1957C58.9991 19.4299 59.5659 19.6548 60.0063 19.8703C60.4466 20.0858 60.8261 20.3856 61.1447 20.7697C61.4632 21.1539 61.6225 21.6411 61.6225 22.2314C61.6225 22.8685 61.4117 23.4213 60.9901 23.8897C60.5684 24.3582 60.0016 24.7189 59.2895 24.9719C58.5868 25.2249 57.8139 25.3514 56.9706 25.3514ZM65.6368 25.3514C65.2152 25.3514 64.8826 25.2389 64.639 25.0141C64.3954 24.7986 64.2736 24.391 64.2736 23.7914C64.2736 23.3416 64.3345 22.8169 64.4563 22.2173C64.5781 21.6177 64.7467 20.8962 64.9622 20.053C65.1215 19.3971 65.2433 18.8771 65.3276 18.493C65.4119 18.0995 65.4541 17.7762 65.4541 17.5232C65.4541 17.0923 65.3838 16.6425 65.2433 16.1741L65.1871 16.0335C65.4682 15.7805 65.7914 15.5791 66.1568 15.4292C66.5222 15.2699 66.8923 15.1903 67.2671 15.1903C67.6044 15.1903 67.848 15.2652 67.9979 15.4151C68.1478 15.565 68.2227 15.8133 68.2227 16.16C68.2227 16.338 68.1806 16.591 68.0963 16.9189C68.0119 17.2468 67.8995 17.645 67.759 18.1135C67.4404 19.1629 67.1874 20.1045 67 20.9384C66.822 21.7723 66.7236 22.6295 66.7049 23.5103L67.3655 24.6065C67.1125 24.8501 66.8314 25.0328 66.5222 25.1546C66.213 25.2858 65.9179 25.3514 65.6368 25.3514ZM64.6811 18.9708C64.3626 18.9708 64.1424 18.924 64.0206 18.8303C63.8988 18.7272 63.8379 18.5492 63.8379 18.2962C63.8379 18.0339 63.9128 17.7481 64.0627 17.4389C64.4094 17.5514 64.8451 17.6076 65.3698 17.6076C65.7914 17.6076 66.3255 17.556 66.9719 17.453C67.2343 17.4155 67.506 17.3827 67.7871 17.3546C68.0682 17.3171 68.3258 17.2984 68.56 17.2984C68.8786 17.2984 69.0988 17.3499 69.2206 17.453C69.3424 17.556 69.4033 17.7341 69.4033 17.987C69.4033 18.24 69.3283 18.5211 69.1784 18.8303C69.0098 18.7741 68.8083 18.7319 68.5741 18.7038C68.3399 18.6757 68.1103 18.6616 67.8855 18.6616C67.6325 18.6616 67.3701 18.6757 67.0984 18.7038C66.8361 18.7319 66.5597 18.7694 66.2692 18.8162C65.5665 18.9193 65.0372 18.9708 64.6811 18.9708ZM72.4113 25.3514C71.896 25.3514 71.4416 25.2155 71.0481 24.9438C70.6545 24.6721 70.35 24.2879 70.1345 23.7914C69.919 23.2854 69.8113 22.7045 69.8113 22.0486C69.8113 20.9993 70.0455 20.0577 70.514 19.2238C70.9918 18.3899 71.6477 17.7387 72.4816 17.2703C73.3248 16.8018 74.2758 16.5676 75.3345 16.5676C75.7468 16.5676 76.145 16.605 76.5291 16.68C76.6416 16.9142 76.6978 17.2375 76.6978 17.6497C75.8358 17.6497 75.0581 17.8324 74.3648 18.1978C73.6808 18.5539 73.1468 19.0411 72.7626 19.6595C72.3785 20.2685 72.1864 20.9477 72.1864 21.6973C72.1864 22.222 72.2942 22.6295 72.5097 22.92C72.7345 23.2105 73.0437 23.3557 73.4372 23.3557C74.1962 23.3557 74.8099 22.8919 75.2783 21.9643C75.7562 21.0274 76.1028 19.5892 76.3183 17.6497C76.5151 17.4061 76.7353 17.2234 76.9789 17.1016C77.2318 16.9798 77.5035 16.9189 77.794 16.9189C78.0844 16.9189 78.3093 16.9986 78.4686 17.1578C78.6372 17.3171 78.7216 17.5467 78.7216 17.8465C78.7216 18.0432 78.6888 18.3103 78.6232 18.6476C78.5576 18.9755 78.4686 19.3737 78.3562 19.8422C78.1594 20.676 78.0095 21.3881 77.9064 21.9784C77.8034 22.5686 77.7518 23.1449 77.7518 23.707C77.7518 24.213 77.8736 24.569 78.1172 24.7751C77.6581 25.1593 77.1663 25.3514 76.6416 25.3514C76.2293 25.3514 75.9108 25.2295 75.6859 24.9859C75.461 24.7423 75.3486 24.3957 75.3486 23.9459C75.3486 23.7679 75.372 23.5524 75.4189 23.2995L75.2783 23.2292C74.9785 23.9038 74.5756 24.4285 74.0697 24.8032C73.5731 25.1686 73.0203 25.3514 72.4113 25.3514ZM81.969 25.3514C81.5006 25.3514 81.1539 25.2249 80.929 24.9719C80.7042 24.7189 80.5917 24.3395 80.5917 23.8335C80.5917 23.4775 80.6948 22.7279 80.9009 21.5849C81.1164 20.4324 81.3553 19.3315 81.6177 18.2822L80.915 17.3265C81.2335 17.0923 81.538 16.9095 81.8285 16.7784C82.1283 16.6472 82.4188 16.5816 82.6999 16.5816C83.0371 16.5816 83.2854 16.6706 83.4447 16.8486C83.6134 17.0173 83.6977 17.2468 83.6977 17.5373C83.6977 17.8277 83.6555 18.1276 83.5712 18.4368C83.4869 18.7366 83.3651 19.0973 83.2058 19.5189L83.3463 19.5892C83.6087 18.8959 83.8663 18.3384 84.1193 17.9168C84.3723 17.4858 84.6534 17.1532 84.9626 16.9189C85.2811 16.6847 85.6371 16.5676 86.0307 16.5676C86.4148 16.5676 86.7146 16.6706 86.9301 16.8768C87.1456 17.0829 87.2534 17.3686 87.2534 17.7341C87.2534 18.1557 87.1081 18.5023 86.8177 18.7741C86.5366 19.0364 86.1431 19.1676 85.6371 19.1676C85.178 19.1676 84.7424 19.3784 84.3301 19.8C83.9272 20.2216 83.604 20.7791 83.3604 21.4724C83.1262 22.1658 83.009 22.9106 83.009 23.707C83.009 24.2036 83.0934 24.5596 83.262 24.7751C82.8498 25.1593 82.4188 25.3514 81.969 25.3514ZM89.466 25.3654C88.9507 25.3654 88.5806 25.2249 88.3557 24.9438C88.1309 24.6627 88.0184 24.2177 88.0184 23.6086C88.0184 23.1402 88.084 22.4422 88.2152 21.5146C88.3557 20.5777 88.6087 19.0411 88.9741 16.9049L88.3557 15.6541C88.7586 15.3917 89.1662 15.1856 89.5784 15.0357C89.9907 14.8764 90.3842 14.7968 90.759 14.7968C91.3399 14.7968 91.8037 14.942 92.1503 15.2324C92.497 15.5135 92.7921 16.0382 93.0357 16.8065C93.2887 17.5748 93.5557 18.835 93.8368 20.587C93.8555 20.7463 93.8743 20.9103 93.893 21.0789C93.9211 21.2476 93.9446 21.4209 93.9633 21.5989H94.1319C94.4318 20.5214 94.8487 19.4721 95.3828 18.4508C95.9168 17.4202 96.5539 16.5629 97.2941 15.8789C98.0437 15.195 98.8401 14.853 99.6833 14.853C100.105 14.853 100.4 14.956 100.569 15.1622C100.747 15.3683 100.836 15.6634 100.836 16.0476C100.836 16.1975 100.789 16.5535 100.695 17.1157C100.601 17.6778 100.494 18.2728 100.372 18.9005C100.194 19.9405 100.039 20.84 99.9082 21.5989C99.7864 22.3578 99.7255 22.8732 99.7255 23.1449C99.7255 23.885 99.8566 24.4519 100.119 24.8454C99.6224 25.2014 99.1258 25.3795 98.6292 25.3795C98.1233 25.3795 97.7579 25.2389 97.533 24.9578C97.3175 24.6768 97.2098 24.2317 97.2098 23.6227C97.2098 23.1355 97.2754 22.4375 97.4065 21.5286C97.5377 20.6104 97.7626 19.2566 98.0811 17.467H97.9687C97.4628 18.0104 97.0083 18.671 96.6055 19.4486C96.2119 20.2263 95.8887 21.0086 95.6357 21.7957C95.3921 22.5733 95.2375 23.2573 95.1719 23.8476C94.9658 24.035 94.7363 24.1802 94.4833 24.2832C94.2303 24.3769 93.9867 24.4238 93.7525 24.4238C93.3777 24.4238 93.0779 24.2692 92.853 23.96C92.6375 23.6508 92.4361 23.0699 92.2487 22.2173C92.0707 21.3553 91.8552 19.964 91.6022 18.0432C91.5928 17.9495 91.5835 17.8559 91.5741 17.7622C91.5647 17.6591 91.5554 17.5607 91.546 17.467H91.4336C91.3961 17.645 91.3586 17.8277 91.3211 18.0151C91.2837 18.2025 91.2462 18.3899 91.2087 18.5773C91.0119 19.7297 90.8527 20.6995 90.7309 21.4865C90.6091 22.2641 90.5482 22.8123 90.5482 23.1308C90.5482 23.8897 90.6793 24.4566 90.9417 24.8314C90.4638 25.1874 89.9719 25.3654 89.466 25.3654ZM104.69 25.3514C103.931 25.3514 103.369 25.164 103.003 24.7892C102.638 24.4144 102.455 23.8429 102.455 23.0746C102.455 22.7092 102.483 22.3297 102.539 21.9362C102.596 21.5427 102.685 21.0508 102.806 20.4605C102.891 20.0295 102.961 19.636 103.017 19.28C103.074 18.9146 103.102 18.6007 103.102 18.3384C103.102 18.0948 103.078 17.8699 103.031 17.6638C102.994 17.4483 102.938 17.2703 102.863 17.1297C103.172 16.9704 103.495 16.8393 103.832 16.7362C104.17 16.6238 104.441 16.5676 104.648 16.5676C104.985 16.5676 105.228 16.6425 105.378 16.7924C105.538 16.9423 105.617 17.1906 105.617 17.5373C105.617 17.7622 105.575 18.1088 105.491 18.5773C105.406 19.0458 105.303 19.5704 105.182 20.1514C105.079 20.6479 104.98 21.1351 104.886 21.613C104.802 22.0814 104.76 22.4187 104.76 22.6249C104.76 23.0559 104.849 23.3791 105.027 23.5946C105.205 23.8007 105.477 23.9038 105.842 23.9038C106.301 23.9038 106.742 23.7351 107.163 23.3978C107.585 23.0512 107.917 22.5968 108.161 22.0346L108.259 24.2411L107.599 23.9038C107.243 24.3441 106.807 24.6955 106.292 24.9578C105.786 25.2202 105.252 25.3514 104.69 25.3514ZM109.103 25.3514C108.634 25.3514 108.288 25.2249 108.063 24.9719C107.838 24.7095 107.725 24.3067 107.725 23.7632C107.725 23.4353 107.805 22.8404 107.964 21.9784C108.124 21.1164 108.377 19.9546 108.723 18.493L108.021 17.4389C108.489 17.1391 108.911 16.9189 109.285 16.7784C109.66 16.6378 110.007 16.5676 110.325 16.5676C110.663 16.5676 110.902 16.6425 111.042 16.7924C111.192 16.933 111.267 17.1719 111.267 17.5092C111.267 17.6029 111.234 17.795 111.169 18.0854C111.112 18.3665 111.042 18.6804 110.958 19.027C110.714 20.0764 110.517 20.9805 110.368 21.7395C110.218 22.4984 110.143 23.1542 110.143 23.707C110.143 24.2223 110.265 24.5831 110.508 24.7892C110.068 25.164 109.599 25.3514 109.103 25.3514ZM114.455 25.3514C113.977 25.3514 113.626 25.2295 113.401 24.9859C113.186 24.7423 113.078 24.3816 113.078 23.9038C113.078 23.4915 113.186 22.6951 113.401 21.5146C113.626 20.3341 113.856 19.2566 114.09 18.2822L113.401 17.3265C113.757 17.1016 114.127 16.9236 114.512 16.7924C114.896 16.6519 115.266 16.5816 115.622 16.5816C115.968 16.5816 116.221 16.6613 116.381 16.8205C116.54 16.9798 116.62 17.2187 116.62 17.5373C116.62 17.7715 116.582 18.0292 116.507 18.3103C116.442 18.5914 116.357 18.8443 116.254 19.0692L116.395 19.1395C116.91 18.2306 117.458 17.5748 118.039 17.1719C118.629 16.769 119.281 16.5676 119.993 16.5676C120.536 16.5676 120.953 16.7081 121.243 16.9892C121.534 17.2703 121.679 17.6778 121.679 18.2119C121.679 18.4742 121.637 18.76 121.553 19.0692L121.693 19.1395C122.218 18.2306 122.775 17.5748 123.366 17.1719C123.956 16.769 124.612 16.5676 125.333 16.5676C125.914 16.5676 126.35 16.7128 126.64 17.0032C126.931 17.2843 127.076 17.7294 127.076 18.3384C127.076 18.6757 127.038 19.0317 126.963 19.4065C126.898 19.7719 126.795 20.2497 126.654 20.84C126.495 21.4959 126.373 22.0346 126.289 22.4562C126.214 22.8778 126.176 23.2948 126.176 23.707C126.176 24.2036 126.261 24.5596 126.429 24.7751C126.017 25.1593 125.591 25.3514 125.15 25.3514C124.663 25.3514 124.307 25.2342 124.082 25C123.867 24.7751 123.759 24.4332 123.759 23.9741C123.759 23.5712 123.801 23.1589 123.886 22.7373C123.97 22.3063 124.092 21.7863 124.251 21.1773C124.382 20.6807 124.476 20.2872 124.532 19.9968C124.598 19.7063 124.63 19.444 124.63 19.2097C124.63 18.938 124.579 18.7319 124.476 18.5914C124.382 18.4508 124.223 18.3805 123.998 18.3805C123.576 18.3805 123.113 18.6148 122.607 19.0832C122.11 19.5517 121.688 20.1935 121.342 21.0086C121.005 21.8238 120.836 22.7232 120.836 23.707C120.836 24.2036 120.92 24.5596 121.089 24.7751C120.677 25.1593 120.246 25.3514 119.796 25.3514C119.318 25.3514 118.967 25.2342 118.742 25C118.526 24.7751 118.419 24.4332 118.419 23.9741C118.419 23.5712 118.461 23.1589 118.545 22.7373C118.639 22.3063 118.765 21.7863 118.925 21.1773C119.046 20.6807 119.135 20.2872 119.192 19.9968C119.257 19.7063 119.29 19.444 119.29 19.2097C119.29 18.6569 119.079 18.3805 118.657 18.3805C118.236 18.3805 117.772 18.6148 117.266 19.0832C116.77 19.5517 116.348 20.1935 116.001 21.0086C115.664 21.8238 115.495 22.7232 115.495 23.707C115.495 24.2036 115.58 24.5596 115.748 24.7751C115.336 25.1593 114.905 25.3514 114.455 25.3514ZM131.741 25.3514C130.627 25.3514 129.797 25.2061 129.254 24.9157C128.71 24.6252 128.439 24.2317 128.439 23.7351C128.439 23.5103 128.5 23.2854 128.621 23.0605C128.753 22.8357 128.935 22.6436 129.17 22.4843C129.413 22.9434 129.741 23.2995 130.153 23.5524C130.566 23.8054 131.048 23.9319 131.601 23.9319C132.051 23.9319 132.454 23.8382 132.81 23.6508C133.175 23.4634 133.358 23.1964 133.358 22.8497C133.358 22.6342 133.231 22.4609 132.978 22.3297C132.735 22.1986 132.336 22.0393 131.784 21.8519C131.193 21.6739 130.706 21.4959 130.322 21.3178C129.938 21.1398 129.605 20.8962 129.324 20.587C129.043 20.2685 128.903 19.8656 128.903 19.3784C128.903 18.7694 129.095 18.2541 129.479 17.8324C129.872 17.4108 130.397 17.0969 131.053 16.8908C131.718 16.6753 132.463 16.5676 133.287 16.5676C134.178 16.5676 134.89 16.7034 135.424 16.9751C135.967 17.2468 136.239 17.6029 136.239 18.0432C136.239 18.4368 136.103 18.7459 135.831 18.9708C135.56 19.1863 135.222 19.2941 134.819 19.2941C134.445 19.2941 134.103 19.1769 133.793 18.9427C133.494 18.6991 133.259 18.3524 133.091 17.9027C132.547 17.9589 132.102 18.0948 131.756 18.3103C131.418 18.5258 131.25 18.7881 131.25 19.0973C131.25 19.2659 131.32 19.4112 131.46 19.533C131.601 19.6548 131.774 19.7578 131.98 19.8422C132.187 19.9171 132.486 20.0202 132.88 20.1514C133.47 20.3387 133.953 20.5214 134.327 20.6995C134.702 20.8681 135.025 21.1117 135.297 21.4303C135.569 21.7488 135.705 22.1564 135.705 22.653C135.705 23.2339 135.513 23.7305 135.129 24.1427C134.754 24.5456 134.262 24.8454 133.653 25.0422C133.044 25.2483 132.407 25.3514 131.741 25.3514Z" fill="#EF7528"/>
<defs>
<linearGradient id="paint0_linear_555_1472" x1="18.2438" y1="10.5737" x2="23.6017" y2="21.3399" gradientUnits="userSpaceOnUse">
<stop stop-color="#EF7528"/>
<stop offset="0.295946" stop-color="#F19D20"/>
</linearGradient>
<linearGradient id="paint1_linear_555_1472" x1="28.6976" y1="13.051" x2="19.5376" y2="20.9552" gradientUnits="userSpaceOnUse">
<stop stop-color="#EF7528"/>
<stop offset="0.295946" stop-color="#F19D20"/>
</linearGradient>
<linearGradient id="paint2_linear_555_1472" x1="29.7353" y1="22.0278" x2="18.7752" y2="16.794" gradientUnits="userSpaceOnUse">
<stop stop-color="#EF7528"/>
<stop offset="0.295946" stop-color="#F19D20"/>
</linearGradient>
<linearGradient id="paint3_linear_555_1472" x1="19.3369" y1="26.4387" x2="23.0364" y2="15.0174" gradientUnits="userSpaceOnUse">
<stop stop-color="#EF7528"/>
<stop offset="0.295946" stop-color="#F19D20"/>
</linearGradient>
<linearGradient id="paint4_linear_555_1472" x1="13.6608" y1="18.1192" x2="25.8278" y2="18.7043" gradientUnits="userSpaceOnUse">
<stop stop-color="#EF7528"/>
<stop offset="0.295946" stop-color="#F19D20"/>
</linearGradient>
</defs>
</svg>
