<svg width="80" height="80" viewBox="0 0 80 80" fill="none" xmlns="http://www.w3.org/2000/svg">
<path d="M40 23.334C35.6333 23.334 32.0833 26.884 32.0833 31.2507C32.0833 35.534 35.4333 39.0007 39.8 39.1507C39.9333 39.134 40.0666 39.134 40.1666 39.1507C40.2 39.1507 40.2166 39.1507 40.25 39.1507C40.2666 39.1507 40.2666 39.1507 40.2833 39.1507C44.55 39.0007 47.9 35.534 47.9166 31.2507C47.9166 26.884 44.3666 23.334 40 23.334Z" fill="#FBDCC9"/>
<path d="M48.4667 43.5828C43.8167 40.4828 36.2333 40.4828 31.55 43.5828C29.4333 44.9995 28.2667 46.9161 28.2667 48.9661C28.2667 51.0161 29.4333 52.9161 31.5333 54.3161C33.8667 55.8828 36.9333 56.6661 40 56.6661C43.0667 56.6661 46.1333 55.8828 48.4667 54.3161C50.5667 52.8995 51.7333 50.9995 51.7333 48.9328C51.7167 46.8828 50.5667 44.9828 48.4667 43.5828Z" fill="#FBDCC9"/>
<rect x="0.5" y="0.5" width="79" height="79" rx="11.5" stroke="#E3E3E3"/>
</svg>
