<svg width="36" height="36" viewBox="0 0 36 36" fill="none" xmlns="http://www.w3.org/2000/svg">
<path d="M18.12 19.5305C18.1 19.5305 18.07 19.5305 18.05 19.5305C18.02 19.5305 17.98 19.5305 17.95 19.5305C15.68 19.4605 13.98 17.6905 13.98 15.5105C13.98 13.2905 15.79 11.4805 18.01 11.4805C20.23 11.4805 22.04 13.2905 22.04 15.5105C22.03 17.7005 20.32 19.4605 18.15 19.5305C18.13 19.5305 18.13 19.5305 18.12 19.5305ZM18 12.9705C16.6 12.9705 15.47 14.1105 15.47 15.5005C15.47 16.8705 16.54 17.9805 17.9 18.0305C17.93 18.0205 18.03 18.0205 18.13 18.0305C19.47 17.9605 20.52 16.8605 20.53 15.5005C20.53 14.1105 19.4 12.9705 18 12.9705Z" fill="#292D32"/>
<path d="M18 28.7503C15.31 28.7503 12.74 27.7503 10.75 25.9303C10.57 25.7703 10.49 25.5303 10.51 25.3003C10.64 24.1103 11.38 23.0003 12.61 22.1803C15.59 20.2003 20.42 20.2003 23.39 22.1803C24.62 23.0103 25.36 24.1103 25.49 25.3003C25.52 25.5403 25.43 25.7703 25.25 25.9303C23.26 27.7503 20.69 28.7503 18 28.7503ZM12.08 25.1003C13.74 26.4903 15.83 27.2503 18 27.2503C20.17 27.2503 22.26 26.4903 23.92 25.1003C23.74 24.4903 23.26 23.9003 22.55 23.4203C20.09 21.7803 15.92 21.7803 13.44 23.4203C12.73 23.9003 12.26 24.4903 12.08 25.1003Z" fill="#292D32"/>
<path d="M18 28.75C12.07 28.75 7.25 23.93 7.25 18C7.25 12.07 12.07 7.25 18 7.25C23.93 7.25 28.75 12.07 28.75 18C28.75 23.93 23.93 28.75 18 28.75ZM18 8.75C12.9 8.75 8.75 12.9 8.75 18C8.75 23.1 12.9 27.25 18 27.25C23.1 27.25 27.25 23.1 27.25 18C27.25 12.9 23.1 8.75 18 8.75Z" fill="#292D32"/>
<rect x="0.5" y="0.5" width="35" height="35" rx="7.5" stroke="#FBDCC9"/>
</svg>
