<svg width="40" height="40" viewBox="0 0 40 40" fill="none" xmlns="http://www.w3.org/2000/svg">
<path d="M13.75 22.5L15.5125 24.2625L18.75 21.0375V36.25H21.25V21.0375L24.4875 24.2625L26.25 22.5L20 16.25L13.75 22.5Z" fill="#374151"/>
<path d="M29.3749 27.4997H28.7499V24.9997H29.3749C30.8668 25.0594 32.3212 24.524 33.4183 23.5113C34.5154 22.4986 35.1653 21.0916 35.2249 19.5997C35.2846 18.1079 34.7492 16.6534 33.7365 15.5563C32.7238 14.4592 31.3168 13.8094 29.8249 13.7497H28.7499L28.6249 12.7247C28.3476 10.6203 27.3148 8.68839 25.7188 7.28894C24.1228 5.88949 22.0726 5.11789 19.9499 5.11789C17.8273 5.11789 15.777 5.88949 14.1811 7.28894C12.5851 8.68839 11.5523 10.6203 11.2749 12.7247L11.2499 13.7497H10.1749C8.6831 13.8094 7.27607 14.4592 6.26337 15.5563C5.25067 16.6534 4.71527 18.1079 4.77495 19.5997C4.83462 21.0916 5.48448 22.4986 6.58157 23.5113C7.67866 24.524 9.1331 25.0594 10.6249 24.9997H11.2499V27.4997H10.6249C8.62045 27.487 6.6914 26.7338 5.20868 25.3848C3.72595 24.0359 2.79422 22.1864 2.59261 20.1921C2.391 18.1977 2.93375 16.1992 4.11651 14.5808C5.29927 12.9624 7.03855 11.8383 8.99994 11.4247C9.53958 8.90786 10.926 6.65217 12.9278 5.03404C14.9297 3.41591 17.4259 2.5332 19.9999 2.5332C22.574 2.5332 25.0702 3.41591 27.0721 5.03404C29.0739 6.65217 30.4603 8.90786 30.9999 11.4247C32.9613 11.8383 34.7006 12.9624 35.8834 14.5808C37.0661 16.1992 37.6089 18.1977 37.4073 20.1921C37.2057 22.1864 36.2739 24.0359 34.7912 25.3848C33.3085 26.7338 31.3794 27.487 29.3749 27.4997Z" fill="#374151"/>
</svg>
